# Blender v2.82 (sub 7) OBJ File: 'detailings.blend'
# www.blender.org
mtllib bench.mtl
o scifibench_Cube.001
v 0.679891 -2.155240 0.513310
v 0.679891 -2.155240 1.026029
v -0.679891 -2.155240 0.513310
v -0.679891 -2.155240 1.026029
v 0.679891 2.155240 0.513310
v 0.679891 2.155240 1.026029
v -0.679891 2.155240 0.513310
v -0.679891 2.155240 1.026029
v 0.693698 0.839415 0.034917
v 0.693698 0.839415 0.722218
v -0.693697 0.839415 0.034917
v -0.693697 0.839415 0.722218
v 0.693698 1.504247 0.034917
v 0.693698 1.504247 0.722218
v -0.693697 1.504247 0.034917
v -0.693697 1.504247 0.722218
v 0.693698 -1.585531 0.034917
v 0.693698 -1.585531 0.722218
v -0.693697 -1.585531 0.034917
v -0.693697 -1.585531 0.722218
v 0.693698 -0.920699 0.034917
v 0.693698 -0.920699 0.722218
v -0.693697 -0.920699 0.034917
v -0.693697 -0.920699 0.722218
vt 0.350967 0.096204
vt 0.096204 0.000143
vt 0.350967 0.000143
vt 0.096204 0.096204
vt 0.000143 0.903796
vt 0.000143 0.096204
vt 0.096204 0.903796
vt 0.350966 0.999857
vt 0.096204 0.999857
vt 0.350966 0.903796
vt 0.447027 0.096204
vt 0.447027 0.903796
vt 0.873582 0.412610
vt 0.618819 0.316549
vt 0.873582 0.316549
vt 0.998142 0.508957
vt 0.873582 0.412897
vt 0.998142 0.412897
vt 0.873582 0.508957
vt 0.618819 0.412896
vt 0.998142 0.412610
vt 0.998142 0.316549
vt 0.873874 0.736515
vt 0.619112 0.640454
vt 0.873874 0.640454
vt 0.998434 0.640168
vt 0.873874 0.544107
vt 0.998434 0.544107
vt 0.873874 0.640168
vt 0.619112 0.544107
vt 0.998434 0.736515
vt 0.998434 0.640454
vt 0.618819 0.412610
vt 0.618819 0.508957
vt 0.619112 0.736515
vt 0.619112 0.640168
vn 0.0000 -1.0000 0.0000
vn -1.0000 0.0000 0.0000
vn 0.0000 1.0000 0.0000
vn 1.0000 0.0000 0.0000
vn 0.0000 0.0000 1.0000
usemtl concretebench
s off
f 2/1/1 3/2/1 1/3/1
f 4/4/2 7/5/2 3/6/2
f 8/7/3 5/8/3 7/9/3
f 6/10/4 1/11/4 5/12/4
f 4/4/5 6/10/5 8/7/5
f 10/13/1 11/14/1 9/15/1
f 12/16/2 15/17/2 11/18/2
f 16/19/3 13/20/3 15/17/3
f 14/21/4 9/15/4 13/22/4
f 18/23/1 19/24/1 17/25/1
f 20/26/2 23/27/2 19/28/2
f 24/29/3 21/30/3 23/27/3
f 22/31/4 17/25/4 21/32/4
f 2/1/1 4/4/1 3/2/1
f 4/4/2 8/7/2 7/5/2
f 8/7/3 6/10/3 5/8/3
f 6/10/4 2/1/4 1/11/4
f 4/4/5 2/1/5 6/10/5
f 10/13/1 12/33/1 11/14/1
f 12/16/2 16/19/2 15/17/2
f 16/19/3 14/34/3 13/20/3
f 14/21/4 10/13/4 9/15/4
f 18/23/1 20/35/1 19/24/1
f 20/26/2 24/29/2 23/27/2
f 24/29/3 22/36/3 21/30/3
f 22/31/4 18/23/4 17/25/4
