# Blender v2.82 (sub 7) OBJ File: ''
# www.blender.org
mtllib boutton.mtl
o Cube
v -1.079038 0.307235 0.447661
v -1.079038 0.307235 -0.447661
v 1.079038 0.307235 0.447661
v 1.079038 0.307235 -0.447661
v -1.079038 -0.307235 0.447661
v -1.079038 -0.307235 -0.447661
v 1.079038 -0.307235 0.447661
v 1.079038 -0.307235 -0.447661
vt 0.017388 0.002269
vt 0.724179 0.205721
vt 0.017400 0.205764
vt -0.002461 0.701857
vt 0.201034 0.995078
vt -0.002461 0.995078
vt 0.989956 0.989960
vt 0.283165 0.786509
vt 0.989943 0.786465
vt 0.860911 0.654223
vt 0.154143 0.357693
vt 0.860921 0.357718
vt 0.754710 0.022681
vt 0.958206 0.315902
vt 0.754710 0.315902
vt 0.724166 0.002226
vt 0.201034 0.701857
vt 0.283177 0.990004
vt 0.154132 0.654198
vt 0.958206 0.022681
vn 0.0000 0.0000 1.0000
vn 1.0000 0.0000 0.0000
vn 0.0000 0.0000 -1.0000
vn 0.0000 1.0000 0.0000
vn -1.0000 0.0000 0.0000
usemtl Material
s off
f 5/1/1 3/2/1 1/3/1
f 3/4/2 8/5/2 4/6/2
f 2/7/3 8/8/3 6/9/3
f 1/10/4 4/11/4 2/12/4
f 5/13/5 2/14/5 6/15/5
f 5/1/1 7/16/1 3/2/1
f 3/4/2 7/17/2 8/5/2
f 2/7/3 4/18/3 8/8/3
f 1/10/4 3/19/4 4/11/4
f 5/13/5 1/20/5 2/14/5
