# Blender v2.82 (sub 7) OBJ File: ''
# www.blender.org
mtllib concrete_stairs_ramp.mtl
o Cube.001
v 2.000000 0.994338 4.003802
v 2.000000 -3.005494 0.003635
v 2.000000 0.994506 0.003803
v -2.000000 0.994506 0.003803
v -2.000000 -3.005494 0.003635
v -2.000000 0.994338 4.003802
vt 1.000000 0.000000
vt 1.000000 0.585786
vt 0.738796 0.292893
vt 0.000000 1.000000
vt 0.369398 0.585786
vt 0.369398 1.000000
vt 0.738796 0.828427
vt 0.369398 0.828427
vt 0.738796 0.414214
vt 0.369398 0.414214
vt 0.738796 0.000000
vt 0.738796 0.414214
vt 0.000000 0.000000
vt 0.000000 0.585786
vt 0.369398 0.000000
vt 0.369398 0.000000
vn 1.0000 0.0000 0.0000
vn 0.0000 1.0000 0.0000
vn -1.0000 0.0000 0.0000
vn 0.0000 0.0000 -1.0000
vn 0.0000 -0.7071 0.7071
usemtl Material.001
s 1
f 1/1/1 2/2/1 3/3/1
f 4/4/2 1/5/2 3/6/2
f 4/7/3 5/8/3 6/9/3
f 2/10/4 4/11/4 3/12/4
f 5/13/5 1/5/5 6/14/5
f 4/4/2 6/14/2 1/5/2
f 2/10/4 5/15/4 4/11/4
f 5/13/5 2/16/5 1/5/5
o Stairs_Cube.002
v 2.000000 0.994338 3.649539
v 2.000000 -3.005494 0.003635
v 2.000000 0.994506 0.003803
v -2.000000 0.994506 0.003803
v -2.000000 -3.005494 0.003635
v -2.000000 0.994338 3.649539
v -2.000000 -2.535726 0.890849
v -2.000000 -1.802326 1.624311
v -2.000000 -0.938333 2.488377
v -2.000000 -0.079280 3.347501
v 2.000000 -0.112182 3.314597
v 2.000000 -0.920655 2.506055
v 2.000000 -1.858872 1.567760
v 2.000000 -2.597117 0.829453
v -2.000000 -0.508806 2.917939
v 2.000000 -0.516419 2.910326
v -2.000000 -1.357997 2.068677
v 2.000000 -1.376372 2.050301
v -2.000000 -2.169026 1.257580
v 2.000000 -2.227994 1.198607
v 2.000000 -2.906936 0.498621
v -2.000000 -2.876240 0.529319
v -2.000000 0.351898 3.660030
v 2.000000 0.335448 3.643578
v -2.000000 -0.082782 2.926592
v 2.000000 -0.103040 2.906333
v 2.000000 0.322894 3.332302
v -2.000000 0.347570 3.356980
v 2.000000 -0.507276 2.502062
v -2.000000 -0.512309 2.497030
v -2.000000 -0.936904 2.072399
v 2.000000 -0.937253 2.072050
v 2.000000 -1.406361 1.602902
v -2.000000 -1.368901 1.640366
v -2.000000 -1.774415 1.234817
v 2.000000 -1.832173 1.177055
v 2.000000 -2.201295 0.807902
v -2.000000 -2.141115 0.868086
v -2.000000 -2.494722 0.514450
v 2.000000 -2.540766 0.468403
v 2.000000 -3.022916 0.158557
v -2.000000 -3.007568 0.173906
vt 0.738796 0.292893
vt 1.000000 0.219915
vt 1.000000 0.282887
vt 0.000000 1.000000
vt 0.369398 0.585786
vt 0.369398 1.000000
vt 0.738796 0.828427
vt 0.520543 0.658945
vt 0.560439 0.614209
vt 0.369398 0.414214
vt 0.738796 0.000000
vt 0.738796 0.414214
vt 0.000000 0.585786
vt 0.369398 0.000000
vt 0.369398 0.336270
vt 0.000000 0.365134
vt 0.000000 0.333681
vt 0.369398 0.302899
vt 0.000000 0.302951
vt 0.000000 0.049869
vt 0.369398 0.068061
vt 0.000000 0.074804
vt 0.000000 0.491065
vt 0.369398 0.520229
vt 0.000000 0.522639
vt 0.000000 0.396586
vt 0.369398 0.425072
vt 0.000000 0.428039
vt 0.369398 0.144807
vt 0.000000 0.126591
vt 0.369398 0.117777
vt 0.369398 0.269529
vt 0.000000 0.239683
vt 0.369398 0.234197
vt 0.369398 0.395471
vt 0.369398 0.365871
vt 0.369398 0.454673
vt 0.000000 0.459491
vt 0.369398 0.198866
vt 0.000000 0.180295
vt 0.369398 0.171836
vt 0.000000 0.000000
vt 0.369398 0.022687
vt 0.000000 0.024935
vt 0.000000 0.272220
vt 0.000000 0.207147
vt 0.000000 0.153443
vt 0.000000 0.099739
vt 0.369398 0.090748
vt 0.369398 0.045374
vt 0.369398 0.487451
vt 1.000000 0.000000
vt 1.000000 0.098335
vt 1.000000 0.065557
vt 1.000000 0.131113
vt 1.000000 0.160714
vt 1.000000 0.563099
vt 1.000000 0.585786
vt 1.000000 0.517725
vt 1.000000 0.540412
vt 1.000000 0.468009
vt 1.000000 0.495038
vt 1.000000 0.413950
vt 1.000000 0.440979
vt 1.000000 0.351589
vt 1.000000 0.386920
vt 1.000000 0.316257
vt 1.000000 0.249516
vt 1.000000 0.190315
vt 0.738796 0.414214
vt 0.639320 0.525758
vt 0.369398 0.828427
vt 0.416570 0.775533
vt 0.385122 0.810796
vt 0.400846 0.793164
vt 0.432293 0.757901
vt 0.449226 0.738914
vt 0.679065 0.481192
vt 0.698975 0.458866
vt 0.659154 0.503518
vt 0.599652 0.570239
vt 0.619486 0.547998
vt 0.579818 0.592479
vt 0.541061 0.635938
vt 0.483092 0.700939
vt 0.500025 0.681952
vt 0.466159 0.719927
vt 0.369398 0.000000
vn 1.0000 0.0000 0.0000
vn 0.0000 1.0000 0.0000
vn -1.0000 0.0000 0.0000
vn 0.0000 0.0000 -1.0000
vn 0.0019 -0.6887 0.7250
vn -0.0041 -0.7108 0.7034
vn -0.0029 -0.7164 0.6977
vn 0.0055 -0.7110 0.7031
vn -0.0000 -0.7115 0.7027
vn 0.0045 -0.5511 0.8344
vn -0.0036 -0.7276 0.6860
vn -0.0038 -0.7375 0.6754
vn 0.0013 -0.7122 0.7020
vn -0.0012 -0.6982 0.7159
vn -0.0026 -0.6953 0.7188
vn 0.0020 -0.7098 0.7044
vn -0.0022 -0.7100 0.7042
vn -0.0021 -0.7143 0.6999
vn -0.0006 -0.7190 0.6950
vn -0.0001 -0.7190 0.6950
vn 0.0003 -0.7048 0.7095
vn -0.0028 -0.7039 0.7103
vn 0.0028 -0.7142 0.6999
vn 0.0027 -0.7060 0.7082
vn 0.0022 -0.7117 0.7024
vn 0.0000 -0.7122 0.7020
vn 0.0017 -0.7319 0.6814
vn -0.0013 -0.7088 0.7054
vn -0.0018 -0.7626 0.6469
vn -0.0001 -0.7188 0.6953
vn 0.0003 -0.7050 0.7092
vn -0.0038 -0.9999 -0.0147
vn -0.0013 -0.9941 0.1089
vn -0.0042 -0.9855 0.1698
vn 0.0037 -0.0065 1.0000
vn 0.0000 0.0163 0.9999
vn -0.0028 -0.7002 0.7140
vn -0.0040 -0.7393 0.6734
vn -0.0002 -0.7050 0.7092
vn -0.0006 -0.7176 0.6964
vn 0.0020 -0.7479 0.6638
vn 0.0036 -0.5508 0.8346
vn 0.0013 -0.7041 0.7101
vn 0.0000 -0.9937 -0.1117
usemtl Material.002
s 1
f 9/17/6 35/18/6 38/19/6
f 10/20/7 7/21/7 9/22/7
f 10/23/8 40/24/8 37/25/8
f 8/26/9 10/27/9 9/28/9
f 10/20/7 12/29/7 7/21/7
f 8/26/9 11/30/9 10/27/9
f 18/31/10 36/32/11 15/33/12
f 38/34/13 15/33/12 37/35/14
f 28/36/15 46/37/16 45/38/17
f 34/39/18 30/40/19 29/41/20
f 21/42/21 32/43/22 31/44/23
f 26/45/24 44/46/25 43/47/26
f 24/48/27 40/49/28 39/50/29
f 22/51/30 36/32/11 35/52/31
f 31/44/23 17/53/32 16/54/33
f 19/55/34 41/56/35 42/57/36
f 11/58/37 47/59/38 48/60/39
f 29/41/20 7/21/40 12/29/41
f 23/61/42 38/34/13 37/35/14
f 39/50/29 14/62/43 19/55/34
f 25/63/44 42/57/36 41/56/35
f 13/64/45 43/47/26 44/46/25
f 45/38/17 20/65/46 13/64/45
f 27/66/47 48/60/39 47/59/38
f 16/54/33 33/67/48 34/39/18
f 9/17/6 7/68/6 33/69/6
f 7/68/6 30/70/6 33/69/6
f 33/69/6 17/71/6 32/72/6
f 47/73/6 8/74/6 46/75/6
f 8/74/6 9/17/6 46/75/6
f 46/75/6 27/76/6 47/73/6
f 43/77/6 20/78/6 46/75/6
f 42/79/6 26/80/6 43/77/6
f 39/81/6 19/82/6 42/79/6
f 38/19/6 24/83/6 39/81/6
f 35/18/6 18/84/6 38/19/6
f 32/72/6 22/85/6 35/18/6
f 9/17/6 33/69/6 32/72/6
f 39/81/6 42/79/6 9/17/6
f 42/79/6 43/77/6 9/17/6
f 43/77/6 46/75/6 9/17/6
f 9/17/6 32/72/6 35/18/6
f 38/19/6 39/81/6 9/17/6
f 12/86/8 10/23/8 31/87/8
f 10/23/8 11/88/8 45/89/8
f 11/88/8 48/90/8 45/89/8
f 48/90/8 28/91/8 45/89/8
f 45/89/8 13/92/8 44/93/8
f 34/94/8 29/95/8 12/86/8
f 31/87/8 16/96/8 34/94/8
f 36/97/8 21/98/8 31/87/8
f 37/25/8 15/99/8 36/97/8
f 40/24/8 23/100/8 37/25/8
f 41/101/8 14/102/8 40/24/8
f 44/93/8 25/103/8 41/101/8
f 10/23/8 45/89/8 44/93/8
f 44/93/8 41/101/8 10/23/8
f 41/101/8 40/24/8 10/23/8
f 31/87/8 34/94/8 12/86/8
f 37/25/8 36/97/8 10/23/8
f 36/97/8 31/87/8 10/23/8
f 18/31/10 35/52/31 36/32/11
f 38/34/13 18/31/10 15/33/12
f 28/36/15 27/66/47 46/37/16
f 34/39/18 33/67/48 30/40/19
f 21/42/21 22/51/30 32/43/22
f 26/45/24 25/63/44 44/46/25
f 24/48/27 23/61/42 40/49/28
f 22/51/30 21/42/21 36/32/11
f 31/44/23 32/43/22 17/53/32
f 19/55/34 14/62/43 41/56/35
f 11/58/37 8/104/49 47/59/38
f 29/41/20 30/40/19 7/21/40
f 23/61/42 24/48/27 38/34/13
f 39/50/29 40/49/28 14/62/43
f 25/63/44 26/45/24 42/57/36
f 13/64/45 20/65/46 43/47/26
f 45/38/17 46/37/16 20/65/46
f 27/66/47 28/36/15 48/60/39
f 16/54/33 17/53/32 33/67/48
