# Blender 3.4.1
# www.blender.org
mtllib lightbar.mtl
o Cube.001
v -3.736607 -2.014421 -0.345098
v -3.736607 -2.014421 0.345098
v 3.736607 -2.014421 -0.345098
v 3.736607 -2.014421 0.345098
v -3.380549 -2.704617 -0.312214
v -3.380549 -2.704617 0.312214
v 3.380549 -2.704617 -0.312214
v 3.380549 -2.704617 0.312214
v 3.099562 -2.014421 -0.345098
v 3.099562 -2.014421 0.345098
v 3.094159 -2.704617 -0.345098
v 3.103828 -2.704617 0.345098
v -3.010997 -2.014421 -0.345098
v -3.010997 -2.704617 0.345098
v -3.010997 -2.014421 0.345098
v -3.003488 -2.704617 -0.345098
v -3.010997 0.001211 -0.345098
v -3.736607 0.001211 -0.345098
v -3.736607 0.001211 0.345098
v 3.099562 0.001211 0.345098
v 3.736607 0.001211 0.345098
v 3.736607 0.001211 -0.345098
v 3.099562 0.001211 -0.345098
v -3.010997 0.001211 0.345098
vn -0.0000 -0.0000 1.0000
vn 0.8887 -0.4585 -0.0000
vn -0.0000 -1.0000 -0.0000
vn -0.8887 -0.4585 -0.0000
vn -0.0000 -0.0476 -0.9989
vn -0.0886 -0.0000 0.9961
vn 0.1180 0.0007 0.9930
vn -0.0000 1.0000 -0.0000
vn 1.0000 -0.0000 -0.0000
vn -0.0000 -0.0000 -1.0000
vn -1.0000 -0.0000 -0.0000
vn -0.0869 -0.0009 -0.9962
vn -0.0000 -0.0476 0.9989
vn 0.1141 -0.0009 -0.9935
vt 0.912885 0.912316
vt 0.178516 0.086137
vt 0.995149 0.094857
vt 0.912885 0.998490
vt 0.192708 0.086320
vt 0.266995 0.912315
vt 0.266995 0.998490
vt 0.554717 0.094787
vt 0.183185 0.743192
vt 0.999060 0.912316
vt 0.178522 0.009518
vt 0.183185 0.823772
vt 0.999060 0.998490
vt 0.995155 0.010909
vt 0.903435 0.743192
vt 0.353170 0.912315
vt 0.192714 0.005847
vt 0.353170 0.998490
vt 0.554723 0.010839
vt 0.903435 0.823772
vt 0.694489 0.828907
vt 0.975325 0.382063
vt 0.974756 0.650646
vt 0.266985 0.086326
vt 0.632200 0.094793
vt 0.975325 0.455197
vt 0.015812 0.658643
vt 0.694489 0.908803
vt 0.272595 0.005853
vt 0.823449 0.743192
vt 0.973890 0.578814
vt 0.972757 0.490847
vt 0.636877 0.010845
vt 0.015309 0.733972
vt 0.824578 0.823772
vt 0.974300 0.555088
vt 0.017866 0.382063
vt 0.017780 0.650612
vt 0.097966 0.086131
vt 0.697114 0.742700
vt 0.906899 0.010902
vt 0.267899 0.823772
vt 0.973367 0.732513
vt 0.017882 0.555088
vt 0.697114 0.822596
vt 0.017866 0.455197
vt 0.973202 0.657185
vt 0.906893 0.094851
vt 0.019081 0.490847
vt 0.268776 0.743192
vt 0.097138 0.009512
vt 0.018993 0.578780
vt 0.463786 0.742700
vt 0.097949 0.309888
vt 0.178499 0.309894
vt 0.661222 0.912316
vt 0.995130 0.340018
vt 0.661222 0.998490
vt 0.632181 0.339954
vt 0.461161 0.908803
vt 0.554698 0.339948
vt 0.015332 0.998490
vt 0.015332 0.912315
vt 0.192690 0.310834
vt 0.266966 0.310840
vt 0.461161 0.828907
vt 0.463786 0.822596
vt 0.906874 0.340011
s 0
usemtl Material.001
f 4/8/1 20/59/1 10/25/1
f 4/7/2 7/16/2 3/6/2
f 16/50/3 6/12/3 5/9/3
f 6/13/4 1/1/4 5/10/4
f 13/39/5 5/11/5 1/2/5
f 15/48/6 6/14/6 14/41/6
f 8/19/7 10/25/7 12/33/7
f 7/17/5 9/24/5 3/5/5
f 8/20/3 11/30/3 7/15/3
f 15/46/8 9/22/8 13/37/8
f 13/40/9 24/67/9 15/45/9
f 10/27/1 14/43/1 12/34/1
f 9/23/10 16/52/10 13/38/10
f 11/32/3 14/44/3 16/49/3
f 15/48/1 19/57/1 2/3/1
f 1/2/10 17/54/10 13/39/10
f 3/6/9 21/62/9 4/7/9
f 9/24/10 22/64/10 3/5/10
f 2/4/11 18/56/11 1/1/11
f 10/28/11 23/66/11 9/21/11
f 4/8/1 21/61/1 20/59/1
f 4/7/2 8/18/2 7/16/2
f 16/50/3 14/42/3 6/12/3
f 6/13/4 2/4/4 1/1/4
f 13/39/12 16/51/12 5/11/12
f 15/48/13 2/3/13 6/14/13
f 8/19/13 4/8/13 10/25/13
f 7/17/14 11/29/14 9/24/14
f 8/20/3 12/35/3 11/30/3
f 15/46/8 10/26/8 9/22/8
f 13/40/9 17/53/9 24/67/9
f 10/27/1 15/47/1 14/43/1
f 9/23/10 11/31/10 16/52/10
f 11/32/3 12/36/3 14/44/3
f 15/48/1 24/68/1 19/57/1
f 1/2/10 18/55/10 17/54/10
f 3/6/9 22/63/9 21/62/9
f 9/24/10 23/65/10 22/64/10
f 2/4/11 19/58/11 18/56/11
f 10/28/11 20/60/11 23/66/11
