# Blender 3.4.1
# www.blender.org
mtllib window.mtl
o Plane
v -0.008887 4.592055 -2.694877
v -0.008627 -4.592055 -2.694877
v -0.009164 4.592055 2.694877
v -0.008905 -4.592055 2.694877
v -0.009047 5.352948 0.000000
v -0.008734 0.000000 -3.141412
v -0.008745 -5.352948 0.000000
v -0.009058 -0.000000 3.141412
v 0.412813 0.000012 0.000022
v -0.008966 5.352948 -1.570706
v -0.008658 -2.676474 -3.141412
v -0.008826 -5.352948 1.570706
v -0.009133 2.676474 3.141412
v -0.009128 5.352948 1.570706
v -0.008809 2.676474 -3.141412
v -0.008664 -5.352948 -1.570706
v -0.008982 -2.676474 3.141412
v 0.412694 0.000012 2.316786
v 0.412933 0.000012 -2.316742
v 0.412702 3.947765 0.000022
v 0.412925 -3.947741 0.000022
v 0.413044 -3.947741 -2.316742
v 0.412822 3.947765 -2.316742
v 0.412583 3.947765 2.316786
v 0.412805 -3.947741 2.316786
v 0.418409 5.352960 -1.570684
v 0.418488 4.592067 -2.694855
v 0.418716 -2.676462 -3.141390
v 0.418747 -4.592043 -2.694855
v 0.418549 -5.352936 1.570728
v 0.418469 -4.592043 2.694899
v 0.418241 2.676486 3.141433
v 0.418210 4.592067 2.694899
v 0.418247 5.352960 1.570728
v 0.418328 5.352960 0.000022
v 0.418565 2.676486 -3.141390
v 0.418641 0.000012 -3.141390
v 0.418711 -5.352936 -1.570684
v 0.418630 -5.352936 0.000022
v 0.418392 -2.676462 3.141433
v 0.418317 0.000012 3.141433
v 0.731122 0.000021 2.316802
v 0.731131 3.947774 0.000038
v 0.731362 0.000021 -2.316726
v 0.731353 -3.947732 0.000038
v 0.731473 -3.947732 -2.316726
v 0.731250 3.947774 -2.316726
v 0.731011 3.947774 2.316802
v 0.731234 -3.947732 2.316802
vn 0.0001 -0.0000 -1.0000
vn -0.0000 1.0000 -0.0000
vn -1.0000 -0.0000 -0.0001
vn -0.0001 -0.0000 1.0000
vn -0.0000 -1.0000 -0.0000
vn -0.0000 0.2270 -0.9739
vn -0.9221 0.3203 -0.2169
vn -0.9350 -0.0000 -0.3547
vn -0.9761 0.2172 -0.0001
vn -0.9350 -0.0000 0.3546
vn -0.8545 0.1179 0.5058
vn -0.9761 -0.2173 -0.0001
vn -0.8545 -0.1179 0.5058
vn -0.9221 -0.3204 -0.2169
vn -0.0000 -0.8281 0.5605
vn -0.0001 0.2270 0.9739
vn 0.0001 -0.8281 -0.5605
vn -0.0000 0.8281 -0.5605
vn -0.0000 -0.2270 0.9739
vn 0.0001 -0.2270 -0.9739
vn -0.0001 0.8281 0.5605
vn -0.9222 0.3203 0.2168
vn -0.8545 -0.1179 -0.5059
vn -0.8545 0.1179 -0.5059
vn -0.9221 -0.3204 0.2168
vt 0.243453 0.957571
vt 0.993477 0.049117
vt 0.993477 0.004614
vt 0.996719 0.957571
vt 0.508523 0.049117
vt 0.243453 0.998459
vt 0.996719 0.998459
vt 0.508523 0.004614
vt 0.751000 0.049117
vt 0.620086 0.957571
vt 0.751000 0.004614
vt 0.620086 0.998459
vt 0.485118 0.473957
vt 0.892327 0.049117
vt 0.839606 0.957571
vt 0.609673 0.004614
vt 0.400566 0.998459
vt 0.609673 0.049117
vt 0.400566 0.957571
vt 0.892327 0.004614
vt 0.839606 0.998459
vt 0.323898 0.869741
vt 0.485118 0.267337
vt 0.485118 0.680576
vt 0.323898 0.901731
vt 0.162506 0.473957
vt 0.268750 0.040189
vt 0.807730 0.473957
vt 0.729262 0.838572
vt 0.024683 0.901731
vt 0.807730 0.680576
vt 0.479278 0.838572
vt 0.162506 0.680576
vt 0.511494 0.040189
vt 0.623112 0.901731
vt 0.623112 0.869741
vt 0.162506 0.267337
vt 0.026006 0.040189
vt 0.979246 0.838572
vt 0.807730 0.267337
vt 0.024683 0.869741
vt 0.047673 0.614040
vt 0.892327 0.087571
vt 0.109853 0.714298
vt 0.993477 0.087571
vt 0.243453 0.922519
vt 0.703841 0.754122
vt 0.839606 0.922519
vt 0.860383 0.714298
vt 0.996719 0.922519
vt 0.993477 0.043068
vt 0.922564 0.333874
vt 0.609673 0.043068
vt 0.860383 0.233615
vt 0.996719 0.963406
vt 0.508523 0.043068
vt 0.266395 0.193791
vt 0.400566 0.963406
vt 0.109853 0.233615
vt 0.508523 0.087571
vt 0.243453 0.963406
vt 0.047673 0.333874
vt 0.609673 0.087571
vt 0.047673 0.473957
vt 0.751000 0.087571
vt 0.266395 0.754122
vt 0.400566 0.922519
vt 0.620086 0.922519
vt 0.485118 0.754122
vt 0.922564 0.614040
vt 0.892327 0.043068
vt 0.751000 0.043068
vt 0.922564 0.473957
vt 0.839606 0.963406
vt 0.703841 0.193791
vt 0.485118 0.193791
vt 0.620086 0.963406
vt 0.485118 0.267337
vt 0.323898 0.845606
vt 0.268750 0.006825
vt 0.162506 0.473957
vt 0.485118 0.680576
vt 0.323898 0.877596
vt 0.807730 0.473957
vt 0.729262 0.804213
vt 0.024683 0.877596
vt 0.807730 0.680576
vt 0.479278 0.804213
vt 0.511494 0.006825
vt 0.162506 0.680576
vt 0.623112 0.877596
vt 0.623112 0.845606
vt 0.026006 0.006825
vt 0.162506 0.267337
vt 0.807730 0.267337
vt 0.979246 0.804213
vt 0.024683 0.845606
s 0
usemtl Material.001
f 8/12/1 40/74/1 17/21/1
f 12/16/2 39/72/2 7/11/2
f 19/24/3 20/26/3 23/33/3
f 7/11/2 38/71/2 16/20/2
f 22/31/3 9/13/3 19/24/3
f 20/27/2 47/89/2 23/34/2
f 11/15/4 37/68/4 6/10/4
f 18/22/4 48/92/4 24/36/4
f 6/10/4 36/67/4 15/19/4
f 10/14/5 35/65/5 5/9/5
f 17/21/6 31/55/6 4/7/6
f 5/9/5 34/63/5 14/18/5
f 9/13/3 24/37/3 20/26/3
f 19/25/1 46/86/1 22/30/1
f 21/28/3 18/23/3 9/13/3
f 24/38/2 43/80/2 20/27/2
f 49/95/7 30/52/7 31/54/7
f 42/78/8 32/57/8 48/94/8
f 38/70/9 45/84/9 46/87/9
f 28/47/10 44/82/10 37/69/10
f 28/47/11 29/49/11 46/87/11
f 26/42/12 43/81/12 35/64/12
f 27/44/13 36/66/13 47/90/13
f 36/66/10 44/82/10 47/90/10
f 34/62/14 48/94/14 33/59/14
f 43/81/12 34/62/12 35/64/12
f 42/78/8 40/75/8 41/76/8
f 45/84/9 30/52/9 49/95/9
f 21/29/5 49/96/5 25/39/5
f 1/2/15 26/43/15 10/14/15
f 13/17/1 41/77/1 8/12/1
f 25/41/4 42/79/4 18/22/4
f 2/4/16 28/48/16 11/15/16
f 14/18/17 33/60/17 3/5/17
f 23/35/1 44/83/1 19/25/1
f 22/32/5 45/85/5 21/29/5
f 4/8/18 30/53/18 12/16/18
f 15/19/19 27/46/19 1/1/19
f 3/6/20 32/58/20 13/17/20
f 16/20/21 29/51/21 2/3/21
f 46/87/22 29/49/22 38/70/22
f 33/59/23 48/94/23 32/57/23
f 31/54/24 40/75/24 49/95/24
f 47/90/25 26/42/25 27/44/25
f 8/12/1 41/77/1 40/74/1
f 12/16/2 30/53/2 39/72/2
f 19/24/3 9/13/3 20/26/3
f 7/11/2 39/72/2 38/71/2
f 22/31/3 21/28/3 9/13/3
f 20/27/2 43/80/2 47/89/2
f 11/15/4 28/48/4 37/68/4
f 18/22/4 42/79/4 48/92/4
f 6/10/4 37/68/4 36/67/4
f 10/14/5 26/43/5 35/65/5
f 17/21/6 40/74/6 31/55/6
f 5/9/5 35/65/5 34/63/5
f 9/13/3 18/23/3 24/37/3
f 19/25/1 44/83/1 46/86/1
f 21/28/3 25/40/3 18/23/3
f 24/38/2 48/93/2 43/80/2
f 42/78/8 41/76/8 32/57/8
f 38/70/9 39/73/9 45/84/9
f 28/47/10 46/87/10 44/82/10
f 26/42/12 47/90/12 43/81/12
f 36/66/10 37/69/10 44/82/10
f 43/81/12 48/94/12 34/62/12
f 42/78/8 49/95/8 40/75/8
f 45/84/9 39/73/9 30/52/9
f 21/29/5 45/85/5 49/96/5
f 1/2/15 27/45/15 26/43/15
f 13/17/1 32/58/1 41/77/1
f 25/41/4 49/97/4 42/79/4
f 2/4/16 29/50/16 28/48/16
f 14/18/17 34/63/17 33/60/17
f 23/35/1 47/91/1 44/83/1
f 22/32/5 46/88/5 45/85/5
f 4/8/18 31/56/18 30/53/18
f 15/19/19 36/67/19 27/46/19
f 3/6/20 33/61/20 32/58/20
f 16/20/21 38/71/21 29/51/21
